<mxfile host="Electron" modified="2023-12-17T20:45:53.127Z" agent="Mozilla/5.0 (Macintosh; Intel Mac OS X 10_15_7) AppleWebKit/537.36 (KHTML, like Gecko) draw.io/22.0.3 Chrome/114.0.5735.289 Electron/25.8.4 Safari/537.36" etag="IHcnzTuF41U-qREdhB2D" version="22.0.3" type="device">
  <diagram name="Page-1" id="gq8pxDzkpHMWlwQR7VwI">
    <mxGraphModel dx="2294" dy="878" grid="1" gridSize="10" guides="1" tooltips="1" connect="1" arrows="1" fold="1" page="1" pageScale="1" pageWidth="850" pageHeight="1100" math="0" shadow="0">
      <root>
        <mxCell id="0" />
        <mxCell id="1" parent="0" />
        <mxCell id="NLgjYHoqvQlWeTWBmcL2-1" value="Amazon Connect" style="sketch=0;outlineConnect=0;fontColor=#232F3E;gradientColor=none;strokeColor=#ffffff;fillColor=#232F3E;dashed=0;verticalLabelPosition=middle;verticalAlign=bottom;align=center;html=1;whiteSpace=wrap;fontSize=10;fontStyle=1;spacing=3;shape=mxgraph.aws4.productIcon;prIcon=mxgraph.aws4.connect;" parent="1" vertex="1">
          <mxGeometry x="250" y="300" width="80" height="110" as="geometry" />
        </mxCell>
        <mxCell id="NLgjYHoqvQlWeTWBmcL2-2" value="" style="outlineConnect=0;dashed=0;verticalLabelPosition=bottom;verticalAlign=top;align=center;html=1;shape=mxgraph.aws3.dynamo_db;fillColor=#2E73B8;gradientColor=none;" parent="1" vertex="1">
          <mxGeometry x="413.5" y="545" width="72" height="81" as="geometry" />
        </mxCell>
        <mxCell id="NLgjYHoqvQlWeTWBmcL2-3" value="" style="outlineConnect=0;dashed=0;verticalLabelPosition=bottom;verticalAlign=top;align=center;html=1;shape=mxgraph.aws3.api_gateway;fillColor=#D9A741;gradientColor=none;" parent="1" vertex="1">
          <mxGeometry x="250" y="504" width="76.5" height="93" as="geometry" />
        </mxCell>
        <mxCell id="NLgjYHoqvQlWeTWBmcL2-6" value="Dynamo DB" style="text;html=1;align=center;verticalAlign=middle;resizable=0;points=[];autosize=1;strokeColor=none;fillColor=none;" parent="1" vertex="1">
          <mxGeometry x="398" y="640" width="90" height="30" as="geometry" />
        </mxCell>
        <mxCell id="NLgjYHoqvQlWeTWBmcL2-7" value="API Gateway" style="text;html=1;align=center;verticalAlign=middle;resizable=0;points=[];autosize=1;strokeColor=none;fillColor=none;" parent="1" vertex="1">
          <mxGeometry x="240" y="537.4100000000001" width="90" height="30" as="geometry" />
        </mxCell>
        <mxCell id="NLgjYHoqvQlWeTWBmcL2-8" value="Amazon Lex" style="sketch=0;outlineConnect=0;fontColor=#232F3E;gradientColor=none;strokeColor=#ffffff;fillColor=#232F3E;dashed=0;verticalLabelPosition=middle;verticalAlign=bottom;align=center;html=1;whiteSpace=wrap;fontSize=10;fontStyle=1;spacing=3;shape=mxgraph.aws4.productIcon;prIcon=mxgraph.aws4.lex;" parent="1" vertex="1">
          <mxGeometry x="650" y="430" width="66" height="80" as="geometry" />
        </mxCell>
        <mxCell id="NLgjYHoqvQlWeTWBmcL2-12" value="" style="edgeStyle=orthogonalEdgeStyle;rounded=0;orthogonalLoop=1;jettySize=auto;html=1;entryX=0.079;entryY=0.488;entryDx=0;entryDy=0;entryPerimeter=0;" parent="1" source="NLgjYHoqvQlWeTWBmcL2-9" target="NLgjYHoqvQlWeTWBmcL2-11" edge="1">
          <mxGeometry relative="1" as="geometry">
            <Array as="points">
              <mxPoint x="87" y="330" />
              <mxPoint x="87" y="329" />
            </Array>
          </mxGeometry>
        </mxCell>
        <mxCell id="NLgjYHoqvQlWeTWBmcL2-9" value="" style="image;aspect=fixed;perimeter=ellipsePerimeter;html=1;align=center;shadow=0;dashed=0;spacingTop=3;image=img/lib/active_directory/cell_phone.svg;" parent="1" vertex="1">
          <mxGeometry x="45.5" y="305" width="21" height="50" as="geometry" />
        </mxCell>
        <mxCell id="NLgjYHoqvQlWeTWBmcL2-10" value="Caller" style="text;html=1;align=center;verticalAlign=middle;resizable=0;points=[];autosize=1;strokeColor=none;fillColor=none;" parent="1" vertex="1">
          <mxGeometry x="45.5" y="350" width="50" height="30" as="geometry" />
        </mxCell>
        <mxCell id="NLgjYHoqvQlWeTWBmcL2-11" value="PSTN" style="ellipse;shape=cloud;whiteSpace=wrap;html=1;" parent="1" vertex="1">
          <mxGeometry x="95.5" y="290" width="94.5" height="80" as="geometry" />
        </mxCell>
        <mxCell id="NLgjYHoqvQlWeTWBmcL2-14" value="" style="sketch=0;pointerEvents=1;shadow=0;dashed=0;html=1;strokeColor=none;fillColor=#505050;labelPosition=center;verticalLabelPosition=bottom;verticalAlign=top;outlineConnect=0;align=center;shape=mxgraph.office.users.call_center_agent;" parent="1" vertex="1">
          <mxGeometry x="1054.5" y="571" width="46" height="55" as="geometry" />
        </mxCell>
        <mxCell id="NLgjYHoqvQlWeTWBmcL2-15" value="Call center Agents&amp;nbsp;" style="text;html=1;align=center;verticalAlign=middle;resizable=0;points=[];autosize=1;strokeColor=none;fillColor=none;" parent="1" vertex="1">
          <mxGeometry x="969.5" y="650" width="120" height="30" as="geometry" />
        </mxCell>
        <mxCell id="NLgjYHoqvQlWeTWBmcL2-22" value="Amazon connect contact flows&amp;nbsp;" style="rounded=0;whiteSpace=wrap;html=1;" parent="1" vertex="1">
          <mxGeometry x="370" y="247" width="400" height="150" as="geometry" />
        </mxCell>
        <mxCell id="NLgjYHoqvQlWeTWBmcL2-23" value="" style="sketch=0;points=[[0,0,0],[0.25,0,0],[0.5,0,0],[0.75,0,0],[1,0,0],[0,1,0],[0.25,1,0],[0.5,1,0],[0.75,1,0],[1,1,0],[0,0.25,0],[0,0.5,0],[0,0.75,0],[1,0.25,0],[1,0.5,0],[1,0.75,0]];outlineConnect=0;fontColor=#232F3E;gradientColor=#4D72F3;gradientDirection=north;fillColor=#3334B9;strokeColor=#ffffff;dashed=0;verticalLabelPosition=bottom;verticalAlign=top;align=center;html=1;fontSize=12;fontStyle=0;aspect=fixed;shape=mxgraph.aws4.resourceIcon;resIcon=mxgraph.aws4.connect;" parent="1" vertex="1">
          <mxGeometry x="370" y="250" width="40" height="40" as="geometry" />
        </mxCell>
        <mxCell id="NLgjYHoqvQlWeTWBmcL2-25" value="" style="sketch=0;points=[[0,0,0],[0.25,0,0],[0.5,0,0],[0.75,0,0],[1,0,0],[0,1,0],[0.25,1,0],[0.5,1,0],[0.75,1,0],[1,1,0],[0,0.25,0],[0,0.5,0],[0,0.75,0],[1,0.25,0],[1,0.5,0],[1,0.75,0]];outlineConnect=0;fontColor=#232F3E;fillColor=#ED7100;strokeColor=#ffffff;dashed=0;verticalLabelPosition=bottom;verticalAlign=top;align=center;html=1;fontSize=12;fontStyle=0;aspect=fixed;shape=mxgraph.aws4.resourceIcon;resIcon=mxgraph.aws4.lambda;" parent="1" vertex="1">
          <mxGeometry x="420" y="441" width="59" height="59" as="geometry" />
        </mxCell>
        <mxCell id="NLgjYHoqvQlWeTWBmcL2-26" value="" style="endArrow=classic;startArrow=classic;html=1;rounded=0;exitX=0.5;exitY=0;exitDx=0;exitDy=0;exitPerimeter=0;entryX=0.5;entryY=1;entryDx=0;entryDy=0;entryPerimeter=0;" parent="1" source="NLgjYHoqvQlWeTWBmcL2-2" target="NLgjYHoqvQlWeTWBmcL2-25" edge="1">
          <mxGeometry width="50" height="50" relative="1" as="geometry">
            <mxPoint x="400" y="460" as="sourcePoint" />
            <mxPoint x="450" y="410" as="targetPoint" />
          </mxGeometry>
        </mxCell>
        <mxCell id="NLgjYHoqvQlWeTWBmcL2-29" value="" style="endArrow=classic;startArrow=classic;html=1;rounded=0;entryX=0.203;entryY=1;entryDx=0;entryDy=0;entryPerimeter=0;" parent="1" target="NLgjYHoqvQlWeTWBmcL2-22" edge="1">
          <mxGeometry width="50" height="50" relative="1" as="geometry">
            <mxPoint x="450" y="440" as="sourcePoint" />
            <mxPoint x="450" y="410" as="targetPoint" />
          </mxGeometry>
        </mxCell>
        <mxCell id="NLgjYHoqvQlWeTWBmcL2-30" value="" style="endArrow=classic;startArrow=classic;html=1;rounded=0;entryX=0.5;entryY=1;entryDx=0;entryDy=0;" parent="1" target="NLgjYHoqvQlWeTWBmcL2-22" edge="1">
          <mxGeometry width="50" height="50" relative="1" as="geometry">
            <mxPoint x="570" y="440" as="sourcePoint" />
            <mxPoint x="450" y="410" as="targetPoint" />
          </mxGeometry>
        </mxCell>
        <mxCell id="NLgjYHoqvQlWeTWBmcL2-32" value="" style="endArrow=classic;startArrow=classic;html=1;rounded=0;entryX=0.77;entryY=0.987;entryDx=0;entryDy=0;entryPerimeter=0;" parent="1" target="NLgjYHoqvQlWeTWBmcL2-22" edge="1">
          <mxGeometry width="50" height="50" relative="1" as="geometry">
            <mxPoint x="678" y="430" as="sourcePoint" />
            <mxPoint x="640" y="387" as="targetPoint" />
          </mxGeometry>
        </mxCell>
        <mxCell id="NLgjYHoqvQlWeTWBmcL2-33" value="" style="endArrow=classic;startArrow=classic;html=1;rounded=0;entryX=-0.005;entryY=0.627;entryDx=0;entryDy=0;entryPerimeter=0;" parent="1" target="NLgjYHoqvQlWeTWBmcL2-22" edge="1">
          <mxGeometry width="50" height="50" relative="1" as="geometry">
            <mxPoint x="330" y="341" as="sourcePoint" />
            <mxPoint x="330" y="397" as="targetPoint" />
          </mxGeometry>
        </mxCell>
        <mxCell id="NLgjYHoqvQlWeTWBmcL2-35" value="" style="endArrow=none;dashed=1;html=1;rounded=0;" parent="1" edge="1">
          <mxGeometry width="50" height="50" relative="1" as="geometry">
            <mxPoint x="850" y="757" as="sourcePoint" />
            <mxPoint x="850" y="757" as="targetPoint" />
            <Array as="points">
              <mxPoint x="210" y="757" />
              <mxPoint x="210" y="187" />
              <mxPoint x="210" y="80" />
              <mxPoint x="850" y="80" />
              <mxPoint x="850" y="187" />
            </Array>
          </mxGeometry>
        </mxCell>
        <mxCell id="NLgjYHoqvQlWeTWBmcL2-36" value="" style="endArrow=classic;startArrow=classic;html=1;rounded=0;" parent="1" edge="1">
          <mxGeometry width="50" height="50" relative="1" as="geometry">
            <mxPoint x="190" y="340" as="sourcePoint" />
            <mxPoint x="250" y="340" as="targetPoint" />
          </mxGeometry>
        </mxCell>
        <mxCell id="NLgjYHoqvQlWeTWBmcL2-37" value="AWS Cloud" style="sketch=0;outlineConnect=0;fontColor=#232F3E;gradientColor=none;strokeColor=#232F3E;fillColor=#ffffff;dashed=0;verticalLabelPosition=bottom;verticalAlign=top;align=center;html=1;fontSize=12;fontStyle=0;aspect=fixed;shape=mxgraph.aws4.resourceIcon;resIcon=mxgraph.aws4.aws_cloud;" parent="1" vertex="1">
          <mxGeometry x="210" y="187" width="60" height="60" as="geometry" />
        </mxCell>
        <mxCell id="NLgjYHoqvQlWeTWBmcL2-38" value="" style="image;aspect=fixed;html=1;points=[];align=center;fontSize=12;image=img/lib/azure2/general/Dashboard.svg;" parent="1" vertex="1">
          <mxGeometry x="10" y="498.94" width="151.5" height="106.94" as="geometry" />
        </mxCell>
        <mxCell id="NLgjYHoqvQlWeTWBmcL2-39" value="Dashboard for monitoring &amp;amp; reporting" style="text;html=1;align=center;verticalAlign=middle;resizable=0;points=[];autosize=1;strokeColor=none;fillColor=none;" parent="1" vertex="1">
          <mxGeometry x="-24.25" y="610" width="220" height="30" as="geometry" />
        </mxCell>
        <mxCell id="QkHn8tal6vw1BbiOGz5Y-2" value="" style="endArrow=classic;startArrow=classic;html=1;rounded=0;" edge="1" parent="1" source="NLgjYHoqvQlWeTWBmcL2-3" target="NLgjYHoqvQlWeTWBmcL2-1">
          <mxGeometry width="50" height="50" relative="1" as="geometry">
            <mxPoint x="340" y="510" as="sourcePoint" />
            <mxPoint x="390" y="460" as="targetPoint" />
          </mxGeometry>
        </mxCell>
        <mxCell id="QkHn8tal6vw1BbiOGz5Y-5" value="" style="endArrow=classic;startArrow=classic;html=1;rounded=0;exitX=0.982;exitY=0.488;exitDx=0;exitDy=0;exitPerimeter=0;" edge="1" parent="1" source="NLgjYHoqvQlWeTWBmcL2-38" target="NLgjYHoqvQlWeTWBmcL2-3">
          <mxGeometry width="50" height="50" relative="1" as="geometry">
            <mxPoint x="340" y="510" as="sourcePoint" />
            <mxPoint x="390" y="460" as="targetPoint" />
          </mxGeometry>
        </mxCell>
        <mxCell id="QkHn8tal6vw1BbiOGz5Y-6" value="" style="sketch=0;pointerEvents=1;shadow=0;dashed=0;html=1;strokeColor=none;fillColor=#505050;labelPosition=center;verticalLabelPosition=bottom;verticalAlign=top;outlineConnect=0;align=center;shape=mxgraph.office.users.call_center_agent;" vertex="1" parent="1">
          <mxGeometry x="950" y="585" width="46" height="55" as="geometry" />
        </mxCell>
        <mxCell id="QkHn8tal6vw1BbiOGz5Y-7" value="Amazon Polly" style="sketch=0;outlineConnect=0;fontColor=#232F3E;gradientColor=none;strokeColor=#ffffff;fillColor=#232F3E;dashed=0;verticalLabelPosition=middle;verticalAlign=bottom;align=center;html=1;whiteSpace=wrap;fontSize=10;fontStyle=1;spacing=3;shape=mxgraph.aws4.productIcon;prIcon=mxgraph.aws4.polly;" vertex="1" parent="1">
          <mxGeometry x="530" y="437.41" width="80" height="100" as="geometry" />
        </mxCell>
        <mxCell id="QkHn8tal6vw1BbiOGz5Y-10" value="" style="endArrow=classic;startArrow=classic;html=1;rounded=0;" edge="1" parent="1" source="QkHn8tal6vw1BbiOGz5Y-6">
          <mxGeometry width="50" height="50" relative="1" as="geometry">
            <mxPoint x="340" y="510" as="sourcePoint" />
            <mxPoint x="1010" y="500" as="targetPoint" />
            <Array as="points">
              <mxPoint x="973" y="500" />
            </Array>
          </mxGeometry>
        </mxCell>
        <mxCell id="QkHn8tal6vw1BbiOGz5Y-11" value="" style="endArrow=classic;startArrow=classic;html=1;rounded=0;" edge="1" parent="1" source="NLgjYHoqvQlWeTWBmcL2-14">
          <mxGeometry width="50" height="50" relative="1" as="geometry">
            <mxPoint x="340" y="510" as="sourcePoint" />
            <mxPoint x="1040" y="500" as="targetPoint" />
            <Array as="points">
              <mxPoint x="1080" y="500" />
            </Array>
          </mxGeometry>
        </mxCell>
        <mxCell id="QkHn8tal6vw1BbiOGz5Y-14" value="" style="sketch=0;points=[[0,0,0],[0.25,0,0],[0.5,0,0],[0.75,0,0],[1,0,0],[0,1,0],[0.25,1,0],[0.5,1,0],[0.75,1,0],[1,1,0],[0,0.25,0],[0,0.5,0],[0,0.75,0],[1,0.25,0],[1,0.5,0],[1,0.75,0]];outlineConnect=0;fontColor=#232F3E;fillColor=#ED7100;strokeColor=#ffffff;dashed=0;verticalLabelPosition=bottom;verticalAlign=top;align=center;html=1;fontSize=12;fontStyle=0;aspect=fixed;shape=mxgraph.aws4.resourceIcon;resIcon=mxgraph.aws4.lambda;" vertex="1" parent="1">
          <mxGeometry x="340" y="442" width="58" height="58" as="geometry" />
        </mxCell>
        <mxCell id="QkHn8tal6vw1BbiOGz5Y-15" value="" style="endArrow=classic;startArrow=classic;html=1;rounded=0;exitX=0.75;exitY=0;exitDx=0;exitDy=0;exitPerimeter=0;" edge="1" parent="1" source="QkHn8tal6vw1BbiOGz5Y-14">
          <mxGeometry width="50" height="50" relative="1" as="geometry">
            <mxPoint x="340" y="510" as="sourcePoint" />
            <mxPoint x="384" y="400" as="targetPoint" />
          </mxGeometry>
        </mxCell>
        <mxCell id="QkHn8tal6vw1BbiOGz5Y-17" value="" style="endArrow=classic;startArrow=classic;html=1;rounded=0;exitX=0.5;exitY=1;exitDx=0;exitDy=0;exitPerimeter=0;" edge="1" parent="1" source="QkHn8tal6vw1BbiOGz5Y-14">
          <mxGeometry width="50" height="50" relative="1" as="geometry">
            <mxPoint x="340" y="510" as="sourcePoint" />
            <mxPoint x="320" y="552" as="targetPoint" />
            <Array as="points">
              <mxPoint x="369" y="552" />
            </Array>
          </mxGeometry>
        </mxCell>
        <mxCell id="QkHn8tal6vw1BbiOGz5Y-18" value="" style="sketch=0;points=[[0,0,0],[0.25,0,0],[0.5,0,0],[0.75,0,0],[1,0,0],[0,1,0],[0.25,1,0],[0.5,1,0],[0.75,1,0],[1,1,0],[0,0.25,0],[0,0.5,0],[0,0.75,0],[1,0.25,0],[1,0.5,0],[1,0.75,0]];outlineConnect=0;fontColor=#232F3E;fillColor=#7AA116;strokeColor=#ffffff;dashed=0;verticalLabelPosition=bottom;verticalAlign=top;align=center;html=1;fontSize=12;fontStyle=0;aspect=fixed;shape=mxgraph.aws4.resourceIcon;resIcon=mxgraph.aws4.s3;" vertex="1" parent="1">
          <mxGeometry x="404" y="120" width="78" height="78" as="geometry" />
        </mxCell>
        <mxCell id="QkHn8tal6vw1BbiOGz5Y-19" value="" style="endArrow=classic;startArrow=classic;html=1;rounded=0;entryX=0.5;entryY=1;entryDx=0;entryDy=0;entryPerimeter=0;exitX=0.181;exitY=0.003;exitDx=0;exitDy=0;exitPerimeter=0;" edge="1" parent="1" source="NLgjYHoqvQlWeTWBmcL2-22" target="QkHn8tal6vw1BbiOGz5Y-18">
          <mxGeometry width="50" height="50" relative="1" as="geometry">
            <mxPoint x="310" y="520" as="sourcePoint" />
            <mxPoint x="360" y="470" as="targetPoint" />
          </mxGeometry>
        </mxCell>
        <mxCell id="QkHn8tal6vw1BbiOGz5Y-20" value="S3" style="text;html=1;align=center;verticalAlign=middle;resizable=0;points=[];autosize=1;strokeColor=none;fillColor=none;" vertex="1" parent="1">
          <mxGeometry x="442" y="198" width="40" height="30" as="geometry" />
        </mxCell>
        <mxCell id="QkHn8tal6vw1BbiOGz5Y-21" value="Amazon Transcribe" style="sketch=0;outlineConnect=0;fontColor=#232F3E;gradientColor=none;strokeColor=#ffffff;fillColor=#232F3E;dashed=0;verticalLabelPosition=middle;verticalAlign=bottom;align=center;html=1;whiteSpace=wrap;fontSize=10;fontStyle=1;spacing=3;shape=mxgraph.aws4.productIcon;prIcon=mxgraph.aws4.transcribe;" vertex="1" parent="1">
          <mxGeometry x="530" y="100" width="80" height="110" as="geometry" />
        </mxCell>
        <mxCell id="QkHn8tal6vw1BbiOGz5Y-28" value="" style="endArrow=classic;startArrow=classic;html=1;rounded=0;" edge="1" parent="1" target="QkHn8tal6vw1BbiOGz5Y-21">
          <mxGeometry width="50" height="50" relative="1" as="geometry">
            <mxPoint x="570" y="240" as="sourcePoint" />
            <mxPoint x="360" y="440" as="targetPoint" />
          </mxGeometry>
        </mxCell>
        <mxCell id="QkHn8tal6vw1BbiOGz5Y-29" value="speech to text" style="text;html=1;align=center;verticalAlign=middle;resizable=0;points=[];autosize=1;strokeColor=none;fillColor=none;" vertex="1" parent="1">
          <mxGeometry x="510" y="78" width="100" height="30" as="geometry" />
        </mxCell>
        <mxCell id="QkHn8tal6vw1BbiOGz5Y-30" value="Text to Speech" style="text;html=1;align=center;verticalAlign=middle;resizable=0;points=[];autosize=1;strokeColor=none;fillColor=none;" vertex="1" parent="1">
          <mxGeometry x="510" y="528" width="100" height="30" as="geometry" />
        </mxCell>
        <mxCell id="QkHn8tal6vw1BbiOGz5Y-31" value="" style="outlineConnect=0;dashed=0;verticalLabelPosition=bottom;verticalAlign=top;align=center;html=1;shape=mxgraph.aws3.internet_3;fillColor=#D2D3D3;gradientColor=none;" vertex="1" parent="1">
          <mxGeometry x="890" y="310" width="110" height="70" as="geometry" />
        </mxCell>
        <mxCell id="QkHn8tal6vw1BbiOGz5Y-33" value="" style="outlineConnect=0;dashed=0;verticalLabelPosition=bottom;verticalAlign=top;align=center;html=1;shape=mxgraph.aws3.vpn_connection;fillColor=#F58534;gradientColor=none;" vertex="1" parent="1">
          <mxGeometry x="996" y="463.40999999999997" width="58.5" height="48" as="geometry" />
        </mxCell>
        <mxCell id="QkHn8tal6vw1BbiOGz5Y-34" value="" style="endArrow=classic;startArrow=classic;html=1;rounded=0;entryX=0;entryY=0.7;entryDx=0;entryDy=0;entryPerimeter=0;exitX=1;exitY=0.75;exitDx=0;exitDy=0;" edge="1" parent="1" source="NLgjYHoqvQlWeTWBmcL2-22" target="QkHn8tal6vw1BbiOGz5Y-31">
          <mxGeometry width="50" height="50" relative="1" as="geometry">
            <mxPoint x="600" y="410" as="sourcePoint" />
            <mxPoint x="650" y="360" as="targetPoint" />
          </mxGeometry>
        </mxCell>
        <mxCell id="QkHn8tal6vw1BbiOGz5Y-35" value="" style="endArrow=classic;startArrow=classic;html=1;rounded=0;entryX=0.5;entryY=0.025;entryDx=0;entryDy=0;entryPerimeter=0;exitX=1;exitY=0.7;exitDx=0;exitDy=0;exitPerimeter=0;" edge="1" parent="1" source="QkHn8tal6vw1BbiOGz5Y-31" target="QkHn8tal6vw1BbiOGz5Y-33">
          <mxGeometry width="50" height="50" relative="1" as="geometry">
            <mxPoint x="1025" y="350" as="sourcePoint" />
            <mxPoint x="960" y="430" as="targetPoint" />
            <Array as="points">
              <mxPoint x="1025" y="360" />
            </Array>
          </mxGeometry>
        </mxCell>
        <mxCell id="QkHn8tal6vw1BbiOGz5Y-36" value="Internet" style="text;html=1;align=center;verticalAlign=middle;resizable=0;points=[];autosize=1;strokeColor=none;fillColor=none;" vertex="1" parent="1">
          <mxGeometry x="880" y="288" width="60" height="30" as="geometry" />
        </mxCell>
      </root>
    </mxGraphModel>
  </diagram>
</mxfile>
